<svg width="122" height="24" viewBox="0 0 122 24" fill="none" xmlns="http://www.w3.org/2000/svg">
<g id="sunnyside 2">
<path id="sunnyside" fill-rule="evenodd" clip-rule="evenodd" d="M87.3288 4.57143C88.2218 4.57143 88.9118 4.35611 89.3989 3.92547C89.886 3.49482 90.1295 2.94824 90.1295 2.28571C90.1295 1.60663 89.8941 1.0559 89.4232 0.63354C88.9524 0.21118 88.2542 0 87.3288 0C86.4033 0 85.7052 0.21118 85.2343 0.63354C84.7635 1.0559 84.5281 1.60663 84.5281 2.28571C84.5281 2.94824 84.7716 3.49482 85.2587 3.92547C85.7458 4.35611 86.4358 4.57143 87.3288 4.57143ZM10.2934 17.6273C9.23804 18.3478 7.90669 18.7081 6.29932 18.7081C2.92222 18.7081 1.00637 17.3085 0.551758 14.5093L4.20487 13.6646C4.43217 14.7246 5.13032 15.2547 6.29932 15.2547C7.09488 15.2547 7.49267 15.0393 7.49267 14.6087C7.49267 14.4596 7.4399 14.3395 7.33437 14.2484C7.22883 14.1573 6.99747 14.0455 6.64028 13.913L5.17903 13.3665L4.76501 13.2174C4.47276 13.118 4.2414 13.0311 4.07092 12.9565C3.90044 12.882 3.65284 12.7619 3.32812 12.5963C3.0034 12.4306 2.73551 12.2526 2.52444 12.0621C2.31337 11.8716 2.09418 11.648 1.86688 11.3913C1.63957 11.1346 1.46909 10.8364 1.35544 10.4969C1.24179 10.1573 1.18496 9.78882 1.18496 9.3913C1.18496 8.11594 1.68016 7.08075 2.67056 6.28571C3.66096 5.49068 4.90302 5.09317 6.39673 5.09317C8.89709 5.09317 10.5856 6.2029 11.4624 8.42236L7.83362 9.46584C7.5089 8.77019 7.0137 8.42236 6.34803 8.42236C5.81224 8.42236 5.54434 8.6294 5.54434 9.04348C5.54434 9.19255 5.60929 9.31677 5.73917 9.41615C5.86906 9.51553 6.08825 9.61491 6.39673 9.71429L7.80927 10.3106C10.4395 11.2381 11.7952 12.6294 11.8764 14.4845C11.8764 15.8592 11.3487 16.9068 10.2934 17.6273ZM21.2736 16.8199C20.5105 18.0787 19.3253 18.7081 17.7179 18.7081C14.7467 18.7081 13.2611 16.8116 13.2611 13.0186V5.36646H18.278V12.5217C18.278 13.9959 18.7814 14.7329 19.788 14.7329C20.7784 14.7329 21.2736 13.9959 21.2736 12.5217V5.36646H26.2905V18.4348H21.2736V16.8199ZM33.5202 18.4348V11.2795C33.5202 9.80538 34.0154 9.06832 35.0058 9.06832C36.0124 9.06832 36.5158 9.80538 36.5158 11.2795V18.4348H41.5327V10.7826C41.5327 6.98965 40.0471 5.09317 37.0759 5.09317C35.4685 5.09317 34.2833 5.72257 33.5202 6.98137V5.36646H28.5033V18.4348H33.5202ZM48.6162 11.2795V18.4348H43.5993V5.36646H48.6162V6.98137C49.3793 5.72257 50.5646 5.09317 52.1719 5.09317C55.1431 5.09317 56.6287 6.98965 56.6287 10.7826V18.4348H51.6118V11.2795C51.6118 9.80538 51.1085 9.06832 50.1018 9.06832C49.1115 9.06832 48.6162 9.80538 48.6162 11.2795ZM64.2968 24L72.431 5.36646H67.1949L64.7108 12.0497L62.4946 5.36646H57.0149L62.3485 17.1677L59.3773 24H64.2968ZM81.7065 17.6273C80.6511 18.3478 79.3198 18.7081 77.7124 18.7081C74.3353 18.7081 72.4195 17.3085 71.9648 14.5093L75.618 13.6646C75.8453 14.7246 76.5434 15.2547 77.7124 15.2547C78.508 15.2547 78.9058 15.0393 78.9058 14.6087C78.9058 14.4596 78.853 14.3395 78.7475 14.2484C78.6419 14.1573 78.4106 14.0455 78.0534 13.913L76.5921 13.3665L76.1781 13.2174C75.8858 13.118 75.6545 13.0311 75.484 12.9565C75.3135 12.882 75.0659 12.7619 74.7412 12.5963C74.4165 12.4306 74.1486 12.2526 73.9375 12.0621C73.7265 11.8716 73.5073 11.648 73.28 11.3913C73.0527 11.1346 72.8822 10.8364 72.7685 10.4969C72.6549 10.1573 72.5981 9.78882 72.5981 9.3913C72.5981 8.11594 73.0932 7.08075 74.0836 6.28571C75.074 5.49068 76.3161 5.09317 77.8098 5.09317C80.3102 5.09317 81.9987 6.2029 82.8755 8.42236L79.2467 9.46584C78.922 8.77019 78.4268 8.42236 77.7611 8.42236C77.2253 8.42236 76.9574 8.6294 76.9574 9.04348C76.9574 9.19255 77.0224 9.31677 77.1523 9.41615C77.2822 9.51553 77.5013 9.61491 77.8098 9.71429L79.2224 10.3106C81.8526 11.2381 83.2083 12.6294 83.2895 14.4845C83.2895 15.8592 82.7618 16.9068 81.7065 17.6273ZM89.8372 5.36646V18.4348H84.8203V5.36646H89.8372ZM97.4322 18.7081C99.137 18.7081 100.355 18.0787 101.085 16.8199V18.4348H106.102V0.47205H101.085V7.00621C100.355 5.73085 99.137 5.09317 97.4322 5.09317C95.7112 5.09317 94.2784 5.73499 93.1338 7.01863C91.9891 8.30228 91.4168 9.92961 91.4168 11.9006C91.4168 13.8716 91.9891 15.499 93.1338 16.7826C94.2784 18.0663 95.7112 18.7081 97.4322 18.7081ZM97.0791 13.9876C97.5094 14.5342 98.0817 14.8075 98.7961 14.8075C99.5104 14.8075 100.083 14.5342 100.513 13.9876C100.943 13.441 101.158 12.7453 101.158 11.9006C101.158 11.0559 100.943 10.3602 100.513 9.81366C100.083 9.26708 99.5104 8.99379 98.7961 8.99379C98.0817 8.99379 97.5053 9.26708 97.0669 9.81366C96.6448 10.3602 96.4337 11.0559 96.4337 11.9006C96.4337 12.7453 96.6488 13.441 97.0791 13.9876ZM115.183 18.7081C117.732 18.7081 119.721 17.9545 121.15 16.4472L119.08 13.6149C118.057 14.4596 116.904 14.882 115.621 14.882C114.647 14.882 113.856 14.6584 113.247 14.2112C112.638 13.764 112.333 13.3333 112.333 12.9193H121.758C121.84 12.6211 121.88 12.2319 121.88 11.7516C121.88 9.69772 121.219 8.07453 119.895 6.88199C118.572 5.68944 116.88 5.09317 114.818 5.09317C112.609 5.09317 110.864 5.76398 109.581 7.10559C108.299 8.4472 107.657 10.0621 107.657 11.9503C107.657 13.8882 108.335 15.499 109.691 16.7826C111.047 18.0663 112.877 18.7081 115.183 18.7081ZM113.113 9.15528C112.626 9.47826 112.366 9.94617 112.333 10.559H117.35C117.318 9.96273 117.058 9.49897 116.571 9.1677C116.084 8.83644 115.508 8.67081 114.842 8.67081C114.176 8.67081 113.6 8.8323 113.113 9.15528Z" fill="white"/>
</g>
</svg>
